# Made in Blockbench 4.5.2
mtllib railroad_crossing_lights_on.mtl

o pole
v 0.5625 1 0.5625
v 0.5625 1 0.4375
v 0.5625 0 0.5625
v 0.5625 0 0.4375
v 0.4375 1 0.4375
v 0.4375 1 0.5625
v 0.4375 0 0.4375
v 0.4375 0 0.5625
vt 0 1
vt 0.125 1
vt 0.125 0
vt 0 0
vt 0 1
vt 0.125 1
vt 0.125 0
vt 0 0
vt 0 1
vt 0.125 1
vt 0.125 0
vt 0 0
vt 0 1
vt 0.125 1
vt 0.125 0
vt 0 0
vt 0 1
vt 0.125 1
vt 0.125 0.875
vt 0 0.875
vt 0 1
vt 0.125 1
vt 0.125 0.875
vt 0 0.875
vn 0 0 -1
vn 1 0 0
vn 0 0 1
vn -1 0 0
vn 0 1 0
vn 0 -1 0
usemtl m_21dc8747-bde2-4cc8-1f49-ef2afb4393e1
f 4/4/1 7/3/1 5/2/1 2/1/1
f 3/8/2 4/7/2 2/6/2 1/5/2
f 8/12/3 3/11/3 1/10/3 6/9/3
f 7/16/4 8/15/4 6/14/4 5/13/4
f 6/20/5 1/19/5 2/18/5 5/17/5
f 7/24/6 4/23/6 3/22/6 8/21/6
o frontconnector
v 0.5625 0.5625 0.4375
v 0.5625 0.5625 0.3125
v 0.5625 0.4375 0.4375
v 0.5625 0.4375 0.3125
v 0.4375 0.5625 0.3125
v 0.4375 0.5625 0.4375
v 0.4375 0.4375 0.3125
v 0.4375 0.4375 0.4375
vt 0 1
vt 0.125 1
vt 0.125 0.875
vt 0 0.875
vt 0 1
vt 0.125 1
vt 0.125 0.875
vt 0 0.875
vt 0 1
vt 0.125 1
vt 0.125 0.875
vt 0 0.875
vt 0 1
vt 0.125 1
vt 0.125 0.875
vt 0 0.875
vt 0 1
vt 0.125 1
vt 0.125 0.875
vt 0 0.875
vn 0 0 -1
vn 1 0 0
vn -1 0 0
vn 0 1 0
vn 0 -1 0
usemtl m_21dc8747-bde2-4cc8-1f49-ef2afb4393e1
f 12/28/7 15/27/7 13/26/7 10/25/7
f 11/32/8 12/31/8 10/30/8 9/29/8
f 15/36/9 16/35/9 14/34/9 13/33/9
f 14/40/10 9/39/10 10/38/10 13/37/10
f 15/44/11 12/43/11 11/42/11 16/41/11
o backconnector
v 0.5625 0.5625 0.6875
v 0.5625 0.5625 0.5625
v 0.5625 0.4375 0.6875
v 0.5625 0.4375 0.5625
v 0.4375 0.5625 0.5625
v 0.4375 0.5625 0.6875
v 0.4375 0.4375 0.5625
v 0.4375 0.4375 0.6875
vt 0 1
vt 0.125 1
vt 0.125 0.875
vt 0 0.875
vt 0 1
vt 0.125 1
vt 0.125 0.875
vt 0 0.875
vt 0 1
vt 0.125 1
vt 0.125 0.875
vt 0 0.875
vt 0 1
vt 0.125 1
vt 0.125 0.875
vt 0 0.875
vt 0 1
vt 0.125 1
vt 0.125 0.875
vt 0 0.875
vn 1 0 0
vn 0 0 1
vn -1 0 0
vn 0 1 0
vn 0 -1 0
usemtl m_21dc8747-bde2-4cc8-1f49-ef2afb4393e1
f 19/48/12 20/47/12 18/46/12 17/45/12
f 24/52/13 19/51/13 17/50/13 22/49/13
f 23/56/14 24/55/14 22/54/14 21/53/14
f 22/60/15 17/59/15 18/58/15 21/57/15
f 23/64/16 20/63/16 19/62/16 24/61/16
o leftlightfront
v 1 0.5625 0.3125
v 1 0.5625 0.125
v 1 0.1875 0.3125
v 1 0.1875 0.125
v 0.625 0.5625 0.125
v 0.625 0.5625 0.3125
v 0.625 0.1875 0.125
v 0.625 0.1875 0.3125
vt 0 1
vt 0.4375 1
vt 0.4375 0.5625
vt 0 0.5625
vt 0 1
vt 0.0625 1
vt 0.0625 0.625
vt 0 0.625
vt 0.375 0.6875
vt 0.8125 0.6875
vt 0.8125 0.25
vt 0.375 0.25
vt 0 1
vt 0.0625 1
vt 0.0625 0.625
vt 0 0.625
vt 0 1
vt 0.4375 1
vt 0.4375 0.8125
vt 0 0.8125
vt 0 1
vt 0.4375 1
vt 0.4375 0.9375
vt 0 0.9375
vn 0 0 -1
vn 1 0 0
vn 0 0 1
vn -1 0 0
vn 0 1 0
vn 0 -1 0
usemtl m_1c693b5c-d150-21d3-0426-8433ba74973b
f 28/68/17 31/67/17 29/66/17 26/65/17
f 27/72/18 28/71/18 26/70/18 25/69/18
usemtl m_21dc8747-bde2-4cc8-1f49-ef2afb4393e1
f 32/76/19 27/75/19 25/74/19 30/73/19
usemtl m_1c693b5c-d150-21d3-0426-8433ba74973b
f 31/80/20 32/79/20 30/78/20 29/77/20
usemtl m_21dc8747-bde2-4cc8-1f49-ef2afb4393e1
f 30/84/21 25/83/21 26/82/21 29/81/21
usemtl m_1c693b5c-d150-21d3-0426-8433ba74973b
f 31/88/22 28/87/22 27/86/22 32/85/22
o rightlightfront
v 0.375 0.5625 0.3125
v 0.375 0.5625 0.125
v 0.375 0.1875 0.3125
v 0.375 0.1875 0.125
v 0 0.5625 0.125
v 0 0.5625 0.3125
v 0 0.1875 0.125
v 0 0.1875 0.3125
vt 0.4375 1
vt 0.875 1
vt 0.875 0.5625
vt 0.4375 0.5625
vt 0 1
vt 0.0625 1
vt 0.0625 0.625
vt 0 0.625
vt 0.25 0.75
vt 0.6875 0.75
vt 0.6875 0.3125
vt 0.25 0.3125
vt 0 1
vt 0.0625 1
vt 0.0625 0.625
vt 0 0.625
vt 0 1
vt 0.4375 1
vt 0.4375 0.8125
vt 0 0.8125
vt 0 1
vt 0.4375 1
vt 0.4375 0.9375
vt 0 0.9375
vn 0 0 -1
vn 1 0 0
vn 0 0 1
vn -1 0 0
vn 0 1 0
vn 0 -1 0
usemtl m_1c693b5c-d150-21d3-0426-8433ba74973b
f 36/92/23 39/91/23 37/90/23 34/89/23
f 35/96/24 36/95/24 34/94/24 33/93/24
usemtl m_21dc8747-bde2-4cc8-1f49-ef2afb4393e1
f 40/100/25 35/99/25 33/98/25 38/97/25
usemtl m_1c693b5c-d150-21d3-0426-8433ba74973b
f 39/104/26 40/103/26 38/102/26 37/101/26
usemtl m_21dc8747-bde2-4cc8-1f49-ef2afb4393e1
f 38/108/27 33/107/27 34/106/27 37/105/27
usemtl m_1c693b5c-d150-21d3-0426-8433ba74973b
f 39/112/28 36/111/28 35/110/28 40/109/28
o leftlightholder
v 0.8706395307487687 0.53125 0.2928311942685142
v 0.844225889389975 0.53125 0.23618695757872354
v 0.8706395307487687 0.40625 0.2928311942685142
v 0.844225889389975 0.40625 0.23618695757872354
v 0.5043604692512313 0.53125 0.3946688057314858
v 0.530774110610025 0.53125 0.45131304242127646
v 0.5043604692512313 0.40625 0.3946688057314858
v 0.530774110610025 0.40625 0.45131304242127646
vt 0 1
vt 0.375 1
vt 0.375 0.875
vt 0 0.875
vt 0 1
vt 0.0625 1
vt 0.0625 0.875
vt 0 0.875
vt 0 1
vt 0.375 1
vt 0.375 0.875
vt 0 0.875
vt 0 1
vt 0.0625 1
vt 0.0625 0.875
vt 0 0.875
vt 0 1
vt 0.375 1
vt 0.375 0.9375
vt 0 0.9375
vt 0 1
vt 0.375 1
vt 0.375 0.9375
vt 0 0.9375
vn -0.42261826174069944 0 -0.9063077870366499
vn 0.9063077870366499 0 -0.42261826174069944
vn 0.42261826174069944 0 0.9063077870366499
vn -0.9063077870366499 0 0.42261826174069944
vn 0 1 0
vn 0 -1 0
usemtl m_21dc8747-bde2-4cc8-1f49-ef2afb4393e1
f 44/116/29 47/115/29 45/114/29 42/113/29
f 43/120/30 44/119/30 42/118/30 41/117/30
f 48/124/31 43/123/31 41/122/31 46/121/31
f 47/128/32 48/127/32 46/126/32 45/125/32
f 46/132/33 41/131/33 42/130/33 45/129/33
f 47/136/34 44/135/34 43/134/34 48/133/34
o rightlightholder
v 0.469225889389975 0.53125 0.45131304242127646
v 0.49563953074876865 0.53125 0.3946688057314858
v 0.469225889389975 0.40625 0.45131304242127646
v 0.49563953074876865 0.40625 0.3946688057314858
v 0.155774110610025 0.53125 0.23618695757872354
v 0.12936046925123135 0.53125 0.2928311942685142
v 0.155774110610025 0.40625 0.23618695757872354
v 0.12936046925123135 0.40625 0.2928311942685142
vt 0 1
vt 0.375 1
vt 0.375 0.875
vt 0 0.875
vt 0 1
vt 0.0625 1
vt 0.0625 0.875
vt 0 0.875
vt 0 1
vt 0.375 1
vt 0.375 0.875
vt 0 0.875
vt 0 1
vt 0.0625 1
vt 0.0625 0.875
vt 0 0.875
vt 0 1
vt 0.375 1
vt 0.375 0.9375
vt 0 0.9375
vt 0 1
vt 0.375 1
vt 0.375 0.9375
vt 0 0.9375
vn 0.42261826174069944 0 -0.9063077870366499
vn 0.9063077870366499 0 0.42261826174069944
vn -0.42261826174069944 0 0.9063077870366499
vn -0.9063077870366499 0 -0.42261826174069944
vn 0 1 0
vn 0 -1 0
usemtl m_21dc8747-bde2-4cc8-1f49-ef2afb4393e1
f 52/140/35 55/139/35 53/138/35 50/137/35
f 51/144/36 52/143/36 50/142/36 49/141/36
f 56/148/37 51/147/37 49/146/37 54/145/37
f 55/152/38 56/151/38 54/150/38 53/149/38
f 54/156/39 49/155/39 50/154/39 53/153/39
f 55/160/40 52/159/40 51/158/40 56/157/40
o rightlightvisor
v 0.375 0.5625 0.125
v 0.375 0.5625 0
v 0.375 0.5 0.125
v 0.375 0.5 0
v 0 0.5625 0
v 0 0.5625 0.125
v 0 0.5 0
v 0 0.5 0.125
vt 0 1
vt 0.375 1
vt 0.375 0.9375
vt 0 0.9375
vt 0 1
vt 0.125 1
vt 0.125 0.9375
vt 0 0.9375
vt 0 1
vt 0.125 1
vt 0.125 0.9375
vt 0 0.9375
vt 0 1
vt 0.375 1
vt 0.375 0.875
vt 0 0.875
vt 0 1
vt 0.375 1
vt 0.375 0.875
vt 0 0.875
vn 0 0 -1
vn 1 0 0
vn -1 0 0
vn 0 1 0
vn 0 -1 0
usemtl m_21dc8747-bde2-4cc8-1f49-ef2afb4393e1
f 60/164/41 63/163/41 61/162/41 58/161/41
f 59/168/42 60/167/42 58/166/42 57/165/42
f 63/172/43 64/171/43 62/170/43 61/169/43
f 62/176/44 57/175/44 58/174/44 61/173/44
f 63/180/45 60/179/45 59/178/45 64/177/45
o leftlightvisor
v 1 0.5625 0.125
v 1 0.5625 0
v 1 0.5 0.125
v 1 0.5 0
v 0.625 0.5625 0
v 0.625 0.5625 0.125
v 0.625 0.5 0
v 0.625 0.5 0.125
vt 0 1
vt 0.375 1
vt 0.375 0.9375
vt 0 0.9375
vt 0 1
vt 0.125 1
vt 0.125 0.9375
vt 0 0.9375
vt 0 1
vt 0.125 1
vt 0.125 0.9375
vt 0 0.9375
vt 0 1
vt 0.375 1
vt 0.375 0.875
vt 0 0.875
vt 0 1
vt 0.375 1
vt 0.375 0.875
vt 0 0.875
vn 0 0 -1
vn 1 0 0
vn -1 0 0
vn 0 1 0
vn 0 -1 0
usemtl m_21dc8747-bde2-4cc8-1f49-ef2afb4393e1
f 68/184/46 71/183/46 69/182/46 66/181/46
f 67/188/47 68/187/47 66/186/47 65/185/47
f 71/192/48 72/191/48 70/190/48 69/189/48
f 70/196/49 65/195/49 66/194/49 69/193/49
f 71/200/50 68/199/50 67/198/50 72/197/50